<svg width="39" height="38" viewBox="0 0 39 38" fill="none" xmlns="http://www.w3.org/2000/svg">
    <path d="M19.5258 37.8532C18.5089 37.8532 17.4882 37.7717 16.4942 37.6114C12.1046 36.905 8.08155 34.6485 5.16703 31.258C2.22069 27.8305 0.599243 23.4511 0.599243 18.9266C0.599243 8.4903 9.08954 0 19.5271 0C29.9647 0 38.455 8.4903 38.455 18.9266C38.455 23.5211 36.7877 27.9527 33.7612 31.403C30.7627 34.8216 26.6429 37.0475 22.1629 37.6724C21.2962 37.7934 20.4104 37.8544 19.5284 37.8544L19.5258 37.8532ZM19.5258 1.52599C9.93081 1.52599 2.12523 9.33156 2.12523 18.9253C2.12523 27.5162 8.26991 34.7401 16.7373 36.1032C18.444 36.3781 20.2335 36.3972 21.9504 36.1579C30.4877 34.9679 36.9264 27.5594 36.9264 18.9253C36.9264 9.33156 29.1208 1.52599 19.5258 1.52599Z" fill="#1877F7"/>
    <path d="M22.0549 15.3463V19.3032H26.9498L26.1747 24.6334H22.0549V36.9138C21.229 37.0284 20.3839 37.0882 19.5261 37.0882C18.5359 37.0882 17.5635 37.0093 16.6166 36.8566V24.6334H12.1023V19.3032H16.6166V14.4618C16.6166 11.4582 19.0513 9.02222 22.0562 9.02222V9.02476C22.0651 9.02476 22.0728 9.02222 22.0817 9.02222H26.9511V13.632H23.7693C22.8237 13.632 22.0562 14.3994 22.0562 15.3451L22.0549 15.3463Z" fill="#1877F7"/>
</svg>
