<svg width="26" height="24" viewBox="0 0 26 24" fill="none" xmlns="http://www.w3.org/2000/svg">
    <path fill-rule="evenodd" clip-rule="evenodd" d="M3.73999 5.99998C3.73999 5.50292 4.14293 5.09998 4.63999 5.09998H20.64C21.137 5.09998 21.54 5.50292 21.54 5.99998C21.54 6.49703 21.137 6.89998 20.64 6.89998H4.63999C4.14293 6.89998 3.73999 6.49703 3.73999 5.99998Z" fill="black"/>
    <path fill-rule="evenodd" clip-rule="evenodd" d="M3.73962 12C3.73962 11.5029 4.05655 11.1 4.44749 11.1H17.0318C17.4227 11.1 17.7396 11.5029 17.7396 12C17.7396 12.497 17.4227 12.9 17.0318 12.9H4.44749C4.05655 12.9 3.73962 12.497 3.73962 12Z" fill="black"/>
    <path fill-rule="evenodd" clip-rule="evenodd" d="M3.73999 18C3.73999 17.5029 4.14293 17.1 4.63999 17.1H20.64C21.137 17.1 21.54 17.5029 21.54 18C21.54 18.497 21.137 18.9 20.64 18.9H4.63999C4.14293 18.9 3.73999 18.497 3.73999 18Z" fill="black"/>
</svg>
