<svg width="48" height="48" viewBox="0 0 48 48" fill="none" xmlns="http://www.w3.org/2000/svg">
<g filter="url(#filter0_i_85_2463)">
<circle cx="24" cy="24" r="24" fill="url(#paint0_radial_85_2463)"/>
</g>
<path d="M18.2983 30.7248L16.5 30.5C16.5 34.6421 19.8579 38 24 38H25C29.1421 38 32.5 34.6421 32.5 30.5L30.7017 30.7248C26.5833 31.2396 22.4167 31.2396 18.2983 30.7248Z" fill="#F72859" stroke="#F72859" stroke-width="1.5" stroke-linecap="round"/>
<path d="M12 23V23C13.2869 19.8748 17.7131 19.8748 19 23V23" stroke="#232333" stroke-width="1.5" stroke-linecap="round"/>
<path d="M29 23V23C30.3869 20.028 34.6131 20.028 36 23V23" stroke="#232333" stroke-width="1.5" stroke-linecap="round"/>
<g filter="url(#filter1_f_85_2463)">
<rect x="31" y="27" width="5" height="5" rx="2.5" fill="#F72859"/>
</g>
<g filter="url(#filter2_f_85_2463)">
<rect x="12" y="27" width="5" height="5" rx="2.5" fill="#F72859"/>
</g>
<path d="M43.0394 11.3221C43.3178 10.3591 44.6822 10.3591 44.9606 11.3221L45.056 11.6519C45.2052 12.1679 45.7354 12.4738 46.2568 12.3448L46.5759 12.2659C47.5543 12.0238 48.2357 13.2174 47.5299 13.9369L47.3333 14.1373C46.9518 14.5262 46.9518 15.149 47.3333 15.5379L47.5299 15.7383C48.2357 16.4578 47.5543 17.6514 46.5759 17.4093L46.3468 17.3527C45.7905 17.215 45.2325 17.5722 45.1246 18.1351L44.9821 18.8781C44.7746 19.9604 43.2254 19.9604 43.0179 18.8781L42.8754 18.1351C42.7675 17.5722 42.2095 17.215 41.6532 17.3527L41.4241 17.4093C40.4457 17.6514 39.7643 16.4578 40.4701 15.7383L40.6667 15.5379C41.0482 15.149 41.0482 14.5262 40.6667 14.1373L40.4701 13.9369C39.7643 13.2174 40.4457 12.0238 41.4241 12.2659L41.7432 12.3448C42.2646 12.4738 42.7948 12.1679 42.944 11.6519L43.0394 11.3221Z" fill="url(#paint1_linear_85_2463)"/>
<defs>
<filter id="filter0_i_85_2463" x="-1" y="0" width="49" height="50" filterUnits="userSpaceOnUse" color-interpolation-filters="sRGB">
<feFlood flood-opacity="0" result="BackgroundImageFix"/>
<feBlend mode="normal" in="SourceGraphic" in2="BackgroundImageFix" result="shape"/>
<feColorMatrix in="SourceAlpha" type="matrix" values="0 0 0 0 0 0 0 0 0 0 0 0 0 0 0 0 0 0 127 0" result="hardAlpha"/>
<feOffset dx="-1" dy="2"/>
<feGaussianBlur stdDeviation="1"/>
<feComposite in2="hardAlpha" operator="arithmetic" k2="-1" k3="1"/>
<feColorMatrix type="matrix" values="0 0 0 0 1 0 0 0 0 0.980183 0 0 0 0 0.920833 0 0 0 0.6 0"/>
<feBlend mode="normal" in2="shape" result="effect1_innerShadow_85_2463"/>
</filter>
<filter id="filter1_f_85_2463" x="25" y="21" width="17" height="17" filterUnits="userSpaceOnUse" color-interpolation-filters="sRGB">
<feFlood flood-opacity="0" result="BackgroundImageFix"/>
<feBlend mode="normal" in="SourceGraphic" in2="BackgroundImageFix" result="shape"/>
<feGaussianBlur stdDeviation="3" result="effect1_foregroundBlur_85_2463"/>
</filter>
<filter id="filter2_f_85_2463" x="6" y="21" width="17" height="17" filterUnits="userSpaceOnUse" color-interpolation-filters="sRGB">
<feFlood flood-opacity="0" result="BackgroundImageFix"/>
<feBlend mode="normal" in="SourceGraphic" in2="BackgroundImageFix" result="shape"/>
<feGaussianBlur stdDeviation="3" result="effect1_foregroundBlur_85_2463"/>
</filter>
<radialGradient id="paint0_radial_85_2463" cx="0" cy="0" r="1" gradientUnits="userSpaceOnUse" gradientTransform="translate(39) rotate(125.293) scale(54.5206)">
<stop stop-color="#FFFAEB"/>
<stop offset="0.21875" stop-color="#F5D163"/>
<stop offset="0.494792" stop-color="#FAD967"/>
<stop offset="0.791667" stop-color="#F2B456"/>
<stop offset="1" stop-color="#F78228"/>
</radialGradient>
<linearGradient id="paint1_linear_85_2463" x1="44" y1="10.5" x2="44" y2="19.5" gradientUnits="userSpaceOnUse">
<stop stop-color="white"/>
<stop offset="1" stop-color="#FFFAE8"/>
</linearGradient>
</defs>
</svg>
