<svg width="38" height="38" viewBox="0 0 38 38" fill="none" xmlns="http://www.w3.org/2000/svg">
    <path d="M19.1412 37.5999H19.0585C8.71514 37.5999 0.299927 29.1847 0.299927 18.8413V18.7586C0.299927 8.41521 8.71514 0 19.0585 0H19.1412C29.4846 0 37.8998 8.41521 37.8998 18.7586V18.8413C37.8998 29.1847 29.4846 37.5999 19.1412 37.5999ZM19.0585 1.27272C9.41641 1.27272 1.57264 9.11648 1.57264 18.7586V18.8413C1.57264 28.4834 9.41641 36.3272 19.0585 36.3272H19.1412C28.7833 36.3272 36.6271 28.4834 36.6271 18.8413V18.7586C36.6271 9.11648 28.7833 1.27272 19.1412 1.27272H19.0585Z" fill="url(#paint0_linear_89_581)"/>
    <path d="M24.7211 8.0271H13.4804C10.375 8.0271 7.84863 10.5534 7.84863 13.6589V23.9424C7.84863 27.0479 10.375 29.5742 13.4804 29.5742H24.7211C27.8265 29.5742 30.3528 27.0479 30.3528 23.9424V13.6589C30.3528 10.5534 27.8265 8.0271 24.7211 8.0271ZM9.83535 13.6589C9.83535 11.6493 11.4708 10.0138 13.4804 10.0138H24.7211C26.7307 10.0138 28.3661 11.6493 28.3661 13.6589V23.9424C28.3661 25.9521 26.7307 27.5875 24.7211 27.5875H13.4804C11.4708 27.5875 9.83535 25.9521 9.83535 23.9424V13.6589Z" fill="url(#paint1_linear_89_581)"/>
    <path d="M19.1008 24.0378C21.9886 24.0378 24.3393 21.6884 24.3393 18.7993C24.3393 15.9102 21.9899 13.5608 19.1008 13.5608C16.2117 13.5608 13.8623 15.9102 13.8623 18.7993C13.8623 21.6884 16.2117 24.0378 19.1008 24.0378ZM19.1008 15.5488C20.8941 15.5488 22.3526 17.0073 22.3526 18.8006C22.3526 20.5938 20.8941 22.0524 19.1008 22.0524C17.3076 22.0524 15.849 20.5938 15.849 18.8006C15.849 17.0073 17.3076 15.5488 19.1008 15.5488Z" fill="url(#paint2_linear_89_581)"/>
    <path d="M24.8242 14.4071C25.6018 14.4071 26.2356 13.7746 26.2356 12.9957C26.2356 12.2168 25.6031 11.5842 24.8242 11.5842C24.0453 11.5842 23.4127 12.2168 23.4127 12.9957C23.4127 13.7746 24.0453 14.4071 24.8242 14.4071Z" fill="url(#paint3_linear_89_581)"/>
    <defs>
    <linearGradient id="paint0_linear_89_581" x1="5.80061" y1="32.0992" x2="32.3991" y2="5.50068" gradientUnits="userSpaceOnUse">
    <stop stop-color="#FAAD4F"/>
    <stop offset="0.35" stop-color="#DD2A7B"/>
    <stop offset="0.62" stop-color="#9537B0"/>
    <stop offset="1" stop-color="#515BD4"/>
    </linearGradient>
    <linearGradient id="paint1_linear_89_581" x1="9.73862" y1="28.1615" x2="28.4616" y2="9.43853" gradientUnits="userSpaceOnUse">
    <stop stop-color="#FAAD4F"/>
    <stop offset="0.35" stop-color="#DD2A7B"/>
    <stop offset="0.62" stop-color="#9537B0"/>
    <stop offset="1" stop-color="#515BD4"/>
    </linearGradient>
    <linearGradient id="paint2_linear_89_581" x1="15.3985" y1="22.5016" x2="22.8019" y2="15.0982" gradientUnits="userSpaceOnUse">
    <stop stop-color="#FAAD4F"/>
    <stop offset="0.35" stop-color="#DD2A7B"/>
    <stop offset="0.62" stop-color="#9537B0"/>
    <stop offset="1" stop-color="#515BD4"/>
    </linearGradient>
    <linearGradient id="paint3_linear_89_581" x1="23.8264" y1="13.9935" x2="25.822" y2="11.9979" gradientUnits="userSpaceOnUse">
    <stop stop-color="#FAAD4F"/>
    <stop offset="0.35" stop-color="#DD2A7B"/>
    <stop offset="0.62" stop-color="#9537B0"/>
    <stop offset="1" stop-color="#515BD4"/>
    </linearGradient>
    </defs>
</svg>
