<svg width="18" height="19" viewBox="0 0 18 19" fill="none" xmlns="http://www.w3.org/2000/svg">
    <path d="M4.98331 6.90909C4.45864 6.90909 4.03331 7.29575 4.03331 7.77273C4.03331 8.2497 4.45864 8.63636 4.98331 8.63636H12.5833C13.108 8.63636 13.5333 8.2497 13.5333 7.77273C13.5333 7.29575 13.108 6.90909 12.5833 6.90909H4.98331Z" fill="#2F4858"/>
    <path d="M4.98331 10.3636C4.45864 10.3636 4.03331 10.7503 4.03331 11.2273C4.03331 11.7042 4.45864 12.0909 4.98331 12.0909H8.78331C9.30798 12.0909 9.7333 11.7042 9.7333 11.2273C9.7333 10.7503 9.30798 10.3636 8.78331 10.3636H4.98331Z" fill="#2F4858"/>
    <path d="M4.98331 13.8182C4.45864 13.8182 4.03331 14.2048 4.03331 14.6818C4.03331 15.1588 4.45864 15.5455 4.98331 15.5455H12.5833C13.108 15.5455 13.5333 15.1588 13.5333 14.6818C13.5333 14.2048 13.108 13.8182 12.5833 13.8182H4.98331Z" fill="#2F4858"/>
    <path fill-rule="evenodd" clip-rule="evenodd" d="M17.2181 3.57337C17.1417 3.40516 17.0294 3.25234 16.8879 3.12368L13.8977 0.405334C13.6129 0.146119 13.2265 0.000322862 12.8235 0H1.75331C1.35018 0 0.96356 0.145584 0.678505 0.404725C0.393449 0.663866 0.233307 1.01534 0.233307 1.38182V17.6182C0.233307 17.7996 0.272623 17.9793 0.34901 18.147C0.425396 18.3146 0.537357 18.467 0.678505 18.5953C0.819648 18.7236 0.987211 18.8254 1.17163 18.8948C1.35605 18.9643 1.5537 19 1.75331 19H15.8133C16.0129 19 16.2106 18.9643 16.395 18.8948C16.5794 18.8254 16.747 18.7236 16.8881 18.5953C17.0293 18.467 17.1412 18.3146 17.2176 18.147C17.294 17.9793 17.3333 17.7996 17.3333 17.6182V4.10254L16.3833 4.10227L17.3333 4.10439L17.3333 4.10254C17.3335 3.92099 17.2944 3.74117 17.2181 3.57337ZM11.6333 3.88636C11.6333 4.60182 12.2713 5.18182 13.0583 5.18182H15.4333V17.2727H2.13331V1.72727H11.6333V3.88636ZM14.5648 3.45455L13.5333 2.51682V3.45455H14.5648Z" fill="#2F4858"/>
</svg>
