<svg width="21" height="20" viewBox="0 0 21 20" fill="none" xmlns="http://www.w3.org/2000/svg">
  <defs>
    <linearGradient id="grad1" x1="0%" y1="0%" x2="100%" y2="100%">
      <stop offset="0%" style="stop-color:#FAAD4F;stop-opacity:1" />
      <stop offset="35%" style="stop-color:#DD2A7B;stop-opacity:1" />
      <stop offset="62%" style="stop-color:#9537B0;stop-opacity:1" />
      <stop offset="100%" style="stop-color:#515BD4;stop-opacity:1" />
    </linearGradient>
  </defs>
  <path fill-rule="evenodd" clip-rule="evenodd" d="M10.6666 6.36364C9.7022 6.36364 8.77728 6.74675 8.09533 7.4287C7.41338 8.11065 7.03026 9.03558 7.03026 10C7.03026 10.9644 7.41338 11.8893 8.09533 12.5713C8.77728 13.2532 9.7022 13.6364 10.6666 13.6364C11.631 13.6364 12.556 13.2532 13.2379 12.5713C13.9199 11.8893 14.303 10.9644 14.303 10C14.303 9.03558 13.9199 8.11065 13.2379 7.4287C12.556 6.74675 11.631 6.36364 10.6666 6.36364ZM9.38098 8.71435C9.72195 8.37337 10.1844 8.18182 10.6666 8.18182C11.1488 8.18182 11.6113 8.37337 11.9523 8.71435C12.2933 9.05532 12.4848 9.51779 12.4848 10C12.4848 10.4822 12.2933 10.9447 11.9523 11.2856C11.6113 11.6266 11.1488 11.8182 10.6666 11.8182C10.1844 11.8182 9.72195 11.6266 9.38098 11.2856C9.04 10.9447 8.84844 10.4822 8.84844 10C8.84844 9.51779 9.04 9.05532 9.38098 8.71435Z" fill="url(#grad1)"/>
  <path fill-rule="evenodd" clip-rule="evenodd" d="M9.74026 0C9.32731 0 8.96624 0.27833 8.86112 0.677679L8.40043 2.42786L6.93676 3.04487L5.81634 2.04807C5.45661 1.72803 4.90972 1.74398 4.56926 2.08445L2.75107 3.90263C2.42171 4.232 2.39457 4.75702 2.68823 5.11859L3.67017 6.32759L3.06802 7.80898L1.36904 8.20562C0.957645 8.30167 0.666626 8.66845 0.666626 9.09091V10.9091C0.666626 11.319 0.940978 11.6782 1.33646 11.7861L3.09253 12.2652L3.71121 13.7328L2.71541 14.8495C2.39467 15.2092 2.41032 15.7566 2.75107 16.0974L4.56926 17.9156C4.89907 18.2454 5.42497 18.2721 5.78649 17.9774L6.99507 16.9921L8.44004 17.5865L8.87611 19.3135C8.97804 19.7172 9.34118 20 9.75753 20H11.5757C11.9919 20 12.3549 19.7174 12.457 19.3139L12.8942 17.5862L14.3875 16.9677C14.5378 17.0937 14.7102 17.2417 14.8817 17.3911C15.0521 17.5394 15.2105 17.6793 15.3264 17.7821C15.3843 17.8335 15.4314 17.8755 15.464 17.9046L15.5134 17.9488C15.8729 18.2713 16.4225 18.2571 16.764 17.9156L18.5822 16.0974C18.9168 15.7628 18.9387 15.2275 18.6327 14.8666L17.6424 13.6988L18.2552 12.2187L19.9862 11.769C20.3869 11.6648 20.6666 11.3031 20.6666 10.8891V9.09091C20.6666 8.67516 20.3846 8.31239 19.9817 8.20988L18.2614 7.77222L17.6502 6.29576L18.6336 5.13232C18.9387 4.77136 18.9164 4.23683 18.5822 3.90263L16.764 2.08445C16.4284 1.74889 15.8912 1.72789 15.5305 2.03622L14.3756 3.02334L12.8472 2.3949L12.3958 0.677971C12.2908 0.278479 11.9297 0 11.5166 0H9.74026ZM16.7044 15.4038L16.0825 16.0258L16.0757 16.0198C15.7399 15.7275 15.3074 15.3576 15.0635 15.1832C14.8082 15.0007 14.4769 14.9627 14.1869 15.0828L11.7769 16.081C11.5117 16.1909 11.3139 16.4196 11.2435 16.6979L10.868 18.1818H10.4656L10.0908 16.6974C10.0203 16.4182 9.82157 16.1888 9.5552 16.0793L7.18611 15.1047C6.87762 14.9778 6.5244 15.0301 6.26586 15.2408L5.27421 16.0492L4.64382 15.4188L5.45057 14.5141C5.68413 14.2522 5.74609 13.8793 5.60978 13.556L4.59615 11.1514C4.4877 10.8941 4.26705 10.701 3.9977 10.6275L2.48481 10.2148V9.81221L3.93967 9.47256C4.22708 9.40546 4.46403 9.20301 4.57517 8.92959L5.55698 6.51414C5.68186 6.20693 5.62954 5.8561 5.42047 5.59869L4.61637 4.60863L5.24852 3.97648L6.15691 4.78465C6.41879 5.01765 6.7913 5.07932 7.1143 4.94316L9.51885 3.92952C9.77874 3.81996 9.97307 3.59598 10.0449 3.32323L10.441 1.81818H10.8156L11.2038 3.29476C11.2762 3.57037 11.4737 3.79606 11.7373 3.90443L14.1982 4.91625C14.5137 5.04597 14.8753 4.98815 15.1346 4.7665L16.0728 3.96455L16.7053 4.5971L15.9042 5.54495C15.6846 5.8047 15.6284 6.16528 15.7585 6.47953L16.7558 8.88862C16.8654 9.15357 17.0937 9.35123 17.3716 9.42193L18.8484 9.79767V10.186L17.3598 10.5729C17.0839 10.6446 16.8576 10.8416 16.7485 11.105L15.7503 13.5159C15.62 13.8306 15.6766 14.1918 15.8969 14.4516L16.7044 15.4038Z" fill="url(#grad1)"/>
</svg>
