<svg width="38" height="38" viewBox="0 0 38 38" fill="none" xmlns="http://www.w3.org/2000/svg">
    <path d="M28.0098 15.1706V18.6005C27.4104 18.542 26.6315 18.4058 25.7698 18.0902C24.6448 17.6778 23.8073 17.114 23.2588 16.6775V23.61L23.2448 23.5883C23.2537 23.7258 23.2588 23.8658 23.2588 24.007C23.2588 27.4497 20.4575 30.2523 17.0135 30.2523C13.5696 30.2523 10.7683 27.4497 10.7683 24.007C10.7683 20.5643 13.5696 17.7606 17.0135 17.7606C17.3508 17.7606 17.6817 17.7873 18.005 17.8395V21.2198C17.6944 21.1091 17.361 21.0492 17.0135 21.0492C15.3832 21.0492 14.0557 22.3754 14.0557 24.007C14.0557 25.6387 15.3832 26.9648 17.0135 26.9648C18.6439 26.9648 19.9713 25.6374 19.9713 24.007C19.9713 23.946 19.9701 23.8849 19.9662 23.8238V10.3521H23.3937C23.4064 10.6422 23.4179 10.935 23.4306 11.2251C23.4535 11.7966 23.6571 12.3451 24.0122 12.7944C24.4284 13.3226 25.0431 13.936 25.906 14.426C26.7142 14.8829 27.4727 15.0802 28.0098 15.1731V15.1706Z" fill="#FF004F"/>
    <path d="M26.831 12.3859V15.8147C26.2315 15.7561 25.4526 15.6199 24.591 15.3043C23.4659 14.8919 22.6285 14.3281 22.0799 13.8916V20.8241L22.0659 20.8024C22.0748 20.9399 22.0799 21.0799 22.0799 21.2212C22.0799 24.6639 19.2787 27.4664 15.8347 27.4664C12.3907 27.4664 9.58948 24.6639 9.58948 21.2212C9.58948 17.7785 12.3907 14.9747 15.8347 14.9747C16.172 14.9747 16.5029 15.0014 16.8261 15.0536V18.4339C16.5156 18.3232 16.1822 18.2634 15.8347 18.2634C14.2044 18.2634 12.8769 19.5895 12.8769 21.2212C12.8769 22.8528 14.2044 24.1789 15.8347 24.1789C17.4651 24.1789 18.7925 22.8515 18.7925 21.2212C18.7925 21.1601 18.7912 21.099 18.7874 21.0379V7.56616H22.2148C22.2276 7.85634 22.239 8.14906 22.2517 8.43924C22.2747 9.01069 22.4783 9.55925 22.8334 10.0085C23.2496 10.5367 23.8643 11.1501 24.7272 11.6401C25.5354 12.097 26.2939 12.2943 26.831 12.3872V12.3859Z" fill="#00F7EF"/>
    <path d="M27.5812 13.8854V17.3154C26.9818 17.2568 26.2029 17.1207 25.3412 16.805C24.2162 16.3927 23.3787 15.8288 22.8302 15.3923V22.3248L22.8162 22.3032C22.8251 22.4406 22.8302 22.5806 22.8302 22.7219C22.8302 26.1646 20.0289 28.9671 16.5849 28.9671C13.141 28.9671 10.3397 26.1646 10.3397 22.7219C10.3397 19.2792 13.141 16.4754 16.5849 16.4754C16.9222 16.4754 17.2531 16.5021 17.5764 16.5543V19.9346C17.2659 19.8239 16.9324 19.7641 16.5849 19.7641C14.9546 19.7641 13.6272 21.0903 13.6272 22.7219C13.6272 24.3535 14.9546 25.6797 16.5849 25.6797C18.2153 25.6797 19.5427 24.3522 19.5427 22.7219C19.5427 22.6608 19.5415 22.5997 19.5377 22.5386V9.06689H22.9651C22.9778 9.35707 22.9893 9.6498 23.002 9.93998C23.0249 10.5114 23.2285 11.06 23.5836 11.5092C23.9998 12.0374 24.6145 12.6509 25.4774 13.1409C26.2856 13.5978 27.0441 13.795 27.5812 13.8879V13.8854Z" fill="black"/>
    <path d="M18.8413 37.5999H18.7586C8.41521 37.5999 0 29.1847 0 18.8413V18.7586C0 8.41521 8.41521 0 18.7586 0H18.8413C29.1847 0 37.5999 8.41521 37.5999 18.7586V18.8413C37.5999 29.1847 29.1847 37.5999 18.8413 37.5999ZM18.7586 1.27272C9.11648 1.27272 1.27272 9.11648 1.27272 18.7586V18.8413C1.27272 28.4834 9.11648 36.3272 18.7586 36.3272H18.8413C28.4834 36.3272 36.3272 28.4834 36.3272 18.8413V18.7586C36.3272 9.11648 28.4834 1.27272 18.8413 1.27272H18.7586Z" fill="black"/>
</svg>
